<?xml version="1.0" standalone="no"?><!DOCTYPE svg PUBLIC "-//W3C//DTD SVG 1.1//EN" "http://www.w3.org/Graphics/SVG/1.1/DTD/svg11.dtd"><svg t="1508822977108" class="icon" style="" viewBox="0 0 1024 1024" version="1.1" xmlns="http://www.w3.org/2000/svg" p-id="10589" xmlns:xlink="http://www.w3.org/1999/xlink" width="200" height="200"><defs><style type="text/css"></style></defs><path d="M512.918929 958.566732c-245.720378 0-445.62836-199.907982-445.62836-445.633477S267.198551 67.300802 512.918929 67.300802c245.725494 0 445.633477 199.907982 445.633477 445.633477S758.6434 958.566732 512.918929 958.566732zM512.918929 105.951077c-224.409003 0-406.978085 182.574199-406.978085 406.983201s182.569082 406.983201 406.978085 406.983201 406.983201-182.574199 406.983201-406.983201S737.327932 105.951077 512.918929 105.951077z" p-id="10590"></path><path d="M512.918929 756.072855c-60.96142 0-119.455649-25.019837-166.676114-70.885444-8.039093-7.80885-7.722892-20.8734 0.636496-28.338419l0 0c7.569396-6.758937 19.032472-6.432503 26.315342 0.63445 39.971363 38.787398 88.995917 59.939137 139.723252 59.939137 50.731428 0 99.757005-21.151739 139.728368-59.939137 7.28287-7.066953 18.745946-7.394411 26.315342-0.63445l0 0c8.359388 7.465019 8.676613 20.529569 0.636496 28.338419C632.378671 731.053018 573.884442 756.072855 512.918929 756.072855z" p-id="10591"></path><path d="M343.052147 437.725366 343.052147 437.725366c-12.713556 0-23.020296-10.30674-23.020296-23.020296l0-22.89136c0-12.713556 10.30674-23.020296 23.020296-23.020296l0 0c12.713556 0 23.020296 10.30674 23.020296 23.020296l0 22.89136C366.072443 427.419649 355.765703 437.725366 343.052147 437.725366z" p-id="10592"></path><path d="M677.609829 437.725366 677.609829 437.725366c-12.713556 0-23.020296-10.30674-23.020296-23.020296l0-22.89136c0-12.713556 10.30674-23.020296 23.020296-23.020296l0 0c12.713556 0 23.020296 10.30674 23.020296 23.020296l0 22.89136C700.629101 427.419649 690.323385 437.725366 677.609829 437.725366z" p-id="10593"></path></svg>